<svg data-v-1084b650="" xmlns="http://www.w3.org/2000/svg" viewBox="0 0 300 300"><!----> <linearGradient data-v-1084b650="" gradientTransform="rotate(25)" id="518eafb5-9bb2-b41d-6377-afd0ad2b8a8c" x1="0%" y1="0%" x2="100%" y2="0%"><stop data-v-1084b650="" offset="0%" style="stop-color: rgb(23, 119, 117); stop-opacity: 1;"></stop> <stop data-v-1084b650="" offset="100%" style="stop-color: rgb(40, 210, 191); stop-opacity: 1;"></stop></linearGradient> <rect data-v-1084b650="" fill="url(#518eafb5-9bb2-b41d-6377-afd0ad2b8a8c)" x="0" y="0" width="300px" height="300px" class="logo-background-square"></rect> <!----> <g data-v-1084b650="" id="2921bb9b-8226-a12e-8071-f84267b3701d" fill="#ffffff" transform="matrix(3.3999999999999995,0,0,3.3999999999999995,113.17077836990357,120.13099670410156)"><path d="M2.51 3.42L5.28 11.44L5.33 11.44L7.94 3.42L6.78 3.12L6.78 2.52L10.05 2.52L10.05 3.12L8.90 3.42L5.77 12.60L4.40 12.60L0.99 3.42L-0.13 3.12L-0.13 2.52L3.65 2.52L3.65 3.12L2.51 3.42ZM16.70 8.75L16.70 8.75L16.70 8.75Q16.70 9.67 16.43 10.49L16.43 10.49L16.43 10.49Q16.16 11.30 15.67 11.83L15.67 11.83L15.67 11.83Q14.84 12.74 13.23 12.74L13.23 12.74L13.23 12.74Q11.66 12.74 10.84 11.86L10.84 11.86L10.84 11.86Q10.36 11.34 10.10 10.58L10.10 10.58L10.10 10.58Q9.84 9.81 9.84 8.92L9.84 8.92L9.84 8.92Q9.84 7.99 10.11 7.17L10.11 7.17L10.11 7.17Q10.37 6.34 10.88 5.81L10.88 5.81L10.88 5.81Q11.33 5.33 11.91 5.12L11.91 5.12L11.91 5.12Q12.50 4.90 13.29 4.90L13.29 4.90L13.29 4.90Q14.06 4.90 14.67 5.12L14.67 5.12L14.67 5.12Q15.29 5.33 15.71 5.78L15.71 5.78L15.71 5.78Q16.20 6.30 16.45 7.08L16.45 7.08L16.45 7.08Q16.70 7.85 16.70 8.75ZM11.34 8.76L11.34 8.76L11.34 8.76Q11.34 10.44 11.84 11.27L11.84 11.27L11.84 11.27Q12.08 11.63 12.41 11.82L12.41 11.82L12.41 11.82Q12.74 12.01 13.27 12.01L13.27 12.01L13.27 12.01Q14.24 12.01 14.71 11.35L14.71 11.35L14.71 11.35Q14.97 10.99 15.09 10.35L15.09 10.35L15.09 10.35Q15.20 9.70 15.20 8.86L15.20 8.86L15.20 8.86Q15.20 7.20 14.70 6.37L14.70 6.37L14.70 6.37Q14.46 6.01 14.13 5.82L14.13 5.82L14.13 5.82Q13.79 5.63 13.26 5.63L13.26 5.63L13.26 5.63Q12.28 5.63 11.84 6.27L11.84 6.27L11.84 6.27Q11.34 7.06 11.34 8.76ZM17.47 5.74L17.47 5.24L18.83 5.04L19.01 3.28L20.19 3.11L20.19 5.04L21.98 5.04L21.98 5.74L20.19 5.74L20.19 10.74L20.19 10.74Q20.19 11.21 20.20 11.39L20.20 11.39L20.20 11.39Q20.22 11.56 20.26 11.68L20.26 11.68L20.26 11.68Q20.30 11.79 20.41 11.82L20.41 11.82L20.41 11.82Q20.52 11.84 20.78 11.84L20.78 11.84L21.76 11.84L21.76 12.25L21.76 12.25Q21.08 12.50 20.57 12.62L20.57 12.62L20.57 12.62Q20.06 12.74 19.75 12.74L19.75 12.74L19.75 12.74Q19.12 12.74 18.94 12.22L18.94 12.22L18.94 12.22Q18.87 12.05 18.85 11.79L18.85 11.79L18.85 11.79Q18.83 11.54 18.83 11.00L18.83 11.00L18.83 5.74L17.47 5.74ZM29.08 8.90L24.19 8.90L24.19 8.90Q24.19 9.93 24.47 10.60L24.47 10.60L24.47 10.60Q24.75 11.26 25.26 11.53L25.26 11.53L25.26 11.53Q25.77 11.80 26.39 11.80L26.39 11.80L26.39 11.80Q27.06 11.80 27.60 11.53L27.60 11.53L27.60 11.53Q28.14 11.26 28.57 10.78L28.57 10.78L29.02 11.12L29.02 11.12Q28.77 11.45 28.48 11.75L28.48 11.75L28.48 11.75Q28.20 12.04 27.83 12.26L27.83 12.26L27.83 12.26Q27.47 12.49 27.02 12.61L27.02 12.61L27.02 12.61Q26.57 12.74 26.03 12.74L26.03 12.74L26.03 12.74Q25.06 12.74 24.32 12.33L24.32 12.33L24.32 12.33Q23.58 11.91 23.18 11.12L23.18 11.12L23.18 11.12Q22.97 10.68 22.88 10.16L22.88 10.16L22.88 10.16Q22.78 9.63 22.78 9.02L22.78 9.02L22.78 9.02Q22.78 7.04 23.67 5.97L23.67 5.97L23.67 5.97Q24.57 4.90 26.14 4.90L26.14 4.90L26.14 4.90Q27.58 4.90 28.35 5.79L28.35 5.79L28.35 5.79Q29.12 6.68 29.12 8.25L29.12 8.25L29.12 8.25Q29.12 8.39 29.11 8.50L29.11 8.50L29.11 8.50Q29.11 8.62 29.08 8.90L29.08 8.90ZM26.05 5.66L26.05 5.66L26.05 5.66Q24.37 5.66 24.21 8.22L24.21 8.22L27.71 8.22L27.71 7.76L27.71 7.76Q27.71 6.75 27.28 6.20L27.28 6.20L27.28 6.20Q26.85 5.66 26.05 5.66ZM34.45 5.85L34.45 5.85L34.45 5.85Q34.33 5.77 34.17 5.77L34.17 5.77L34.17 5.77Q33.91 5.77 33.61 6.10L33.61 6.10L33.61 6.10Q33.32 6.43 33.10 6.93L33.10 6.93L33.10 6.93Q32.90 7.41 32.79 7.97L32.79 7.97L32.79 7.97Q32.68 8.54 32.68 9.14L32.68 9.14L32.68 11.76L34.19 12.03L34.19 12.60L30.24 12.60L30.24 12.03L31.32 11.76L31.32 5.88L30.24 5.61L30.24 5.04L32.26 5.04L32.56 6.89L32.62 6.89L32.62 6.89Q32.94 5.94 33.48 5.42L33.48 5.42L33.48 5.42Q34.02 4.90 34.69 4.90L34.69 4.90L34.69 4.90Q35.24 4.90 35.60 5.24L35.60 5.24L35.60 5.24Q35.97 5.59 35.97 6.16L35.97 6.16L35.97 6.16Q35.97 6.58 35.75 6.82L35.75 6.82L35.75 6.82Q35.53 7.07 35.17 7.07L35.17 7.07L35.17 7.07Q34.80 7.07 34.59 6.84L34.59 6.84L34.59 6.84Q34.38 6.61 34.38 6.23L34.38 6.23L34.38 6.23Q34.38 6.15 34.40 6.08L34.40 6.08L34.40 6.08Q34.41 6.01 34.45 5.85ZM46.10 7.45L46.10 7.45L46.10 7.45Q46.10 8.68 45.74 9.74L45.74 9.74L45.74 9.74Q45.37 10.81 44.70 11.52L44.70 11.52L44.70 11.52Q44.18 12.08 43.50 12.37L43.50 12.37L43.50 12.37Q42.81 12.66 41.93 12.73L41.93 12.73L41.93 12.78L43.71 13.92L43.71 13.92Q44.24 14.25 44.84 14.25L44.84 14.25L44.84 14.25Q45.07 14.25 45.23 14.20L45.23 14.20L45.23 14.20Q45.39 14.14 45.60 13.99L45.60 13.99L45.82 14.36L45.82 14.36Q45.54 14.81 45.11 15.00L45.11 15.00L45.11 15.00Q44.67 15.19 44.04 15.19L44.04 15.19L44.04 15.19Q43.26 15.19 42.67 14.92L42.67 14.92L42.67 14.92Q42.08 14.66 41.76 14.13L41.76 14.13L40.92 12.71L40.92 12.71Q39.21 12.59 38.23 11.56L38.23 11.56L38.23 11.56Q37.59 10.89 37.24 9.88L37.24 9.88L37.24 9.88Q36.89 8.86 36.89 7.67L36.89 7.67L36.89 7.67Q36.89 6.44 37.25 5.38L37.25 5.38L37.25 5.38Q37.62 4.31 38.29 3.60L38.29 3.60L38.29 3.60Q38.88 2.97 39.65 2.67L39.65 2.67L39.65 2.67Q40.42 2.38 41.50 2.38L41.50 2.38L41.50 2.38Q43.61 2.38 44.74 3.56L44.74 3.56L44.74 3.56Q45.40 4.23 45.75 5.24L45.75 5.24L45.75 5.24Q46.10 6.26 46.10 7.45ZM38.50 7.36L38.50 7.36L38.50 7.36Q38.50 8.55 38.70 9.47L38.70 9.47L38.70 9.47Q38.89 10.39 39.26 10.93L39.26 10.93L39.26 10.93Q39.94 11.97 41.52 11.97L41.52 11.97L41.52 11.97Q43.02 11.97 43.72 11.05L43.72 11.05L43.72 11.05Q44.49 10.00 44.49 7.64L44.49 7.64L44.49 7.64Q44.49 6.48 44.30 5.60L44.30 5.60L44.30 5.60Q44.10 4.72 43.72 4.17L43.72 4.17L43.72 4.17Q42.99 3.14 41.45 3.14L41.45 3.14L41.45 3.14Q39.98 3.14 39.27 4.06L39.27 4.06L39.27 4.06Q38.50 5.05 38.50 7.36Z"></path></g> <!----> <g data-v-1084b650="" id="63c00748-9150-cba5-6c11-91a27fb254c1" stroke="none" fill="#ffffff" transform="matrix(0.2557967405055256,0,0,0.2557967405055256,29.950262576069584,111.63048989995829)"><svg xmlns="http://www.w3.org/2000/svg" xmlns:xlink="http://www.w3.org/1999/xlink" version="1.1" x="0px" y="0px" viewBox="0 0 100 100" enable-background="new 0 0 100 100" xml:space="preserve"><g><circle cx="78.957" cy="41.429" r="6.847"></circle><path d="M86.904,56.242v8.641c0,1.99-0.949,3.794-2.476,5.055v11.059c0,2.638-2.452,4.766-5.472,4.766   c-1.504,0-2.88-0.532-3.864-1.4c-0.995-0.856-1.608-2.048-1.608-3.366V69.938c-0.046-0.035-0.104-0.069-0.15-0.116   c-1.434-1.261-2.325-3.019-2.325-4.94v-8.641c0-3.864,3.551-6.987,7.947-6.987c2.198,0,4.188,0.775,5.622,2.047   C86.013,52.563,86.904,54.31,86.904,56.242z"></path><circle cx="61.057" cy="27.895" r="6.847"></circle><path d="M69.004,42.708v8.641c0,1.99-0.949,3.794-2.476,5.055v11.059c0,2.638-2.452,4.766-5.472,4.766   c-1.504,0-2.88-0.532-3.864-1.4c-0.995-0.856-1.608-2.048-1.608-3.366V56.404c-0.046-0.035-0.104-0.069-0.15-0.116   c-1.434-1.261-2.325-3.019-2.325-4.94v-8.641c0-3.864,3.551-6.987,7.947-6.987c2.198,0,4.188,0.775,5.622,2.047   C68.114,39.029,69.004,40.776,69.004,42.708z"></path><circle cx="43.048" cy="14.28" r="6.847"></circle><path d="M50.996,29.093v8.641c0,1.99-0.949,3.794-2.476,5.055v11.059c0,2.638-2.452,4.766-5.472,4.766   c-1.504,0-2.88-0.532-3.864-1.4c-0.995-0.856-1.608-2.048-1.608-3.366V42.79c-0.046-0.035-0.104-0.069-0.15-0.116   c-1.434-1.261-2.325-3.019-2.325-4.94v-8.641c0-3.864,3.551-6.987,7.947-6.987c2.198,0,4.188,0.775,5.622,2.047   C50.105,25.415,50.996,27.161,50.996,29.093z"></path><polygon points="32.266,49.538 29.153,53.671 74.961,88.17 71.649,92.567 25.842,58.068 22.733,62.195 13.096,45.023  "></polygon></g></svg></g></svg>