<svg data-v-1084b650="" xmlns="http://www.w3.org/2000/svg" viewBox="0 0 300 300"><!----> <linearGradient data-v-1084b650="" gradientTransform="rotate(25)" id="5c7f7cd2-8a84-f9fb-2769-5f9e596d0262" x1="0%" y1="0%" x2="100%" y2="0%"><stop data-v-1084b650="" offset="0%" style="stop-color: rgb(23, 119, 117); stop-opacity: 1;"></stop> <stop data-v-1084b650="" offset="100%" style="stop-color: rgb(40, 210, 191); stop-opacity: 1;"></stop></linearGradient> <rect data-v-1084b650="" fill="url(#5c7f7cd2-8a84-f9fb-2769-5f9e596d0262)" x="0" y="0" width="300px" height="300px" class="logo-background-square"></rect> <!----> <!----> <g data-v-1084b650="" id="707ece82-cf73-e177-c082-9fa255bc326f" fill="#ffffff" stroke="none" transform="matrix(0.8499999999999999,0,0,0.8499999999999999,22.499996757507347,22.500003242492696)"><svg xmlns="http://www.w3.org/2000/svg" xmlns:xlink="http://www.w3.org/1999/xlink" version="1.1" x="0px" y="0px" viewBox="0 0 100 100" enable-background="new 0 0 100 100" xml:space="preserve"><g><circle cx="78.957" cy="41.429" r="6.847"></circle><path d="M86.904,56.242v8.641c0,1.99-0.949,3.794-2.476,5.055v11.059c0,2.638-2.452,4.766-5.472,4.766   c-1.504,0-2.88-0.532-3.864-1.4c-0.995-0.856-1.608-2.048-1.608-3.366V69.938c-0.046-0.035-0.104-0.069-0.15-0.116   c-1.434-1.261-2.325-3.019-2.325-4.94v-8.641c0-3.864,3.551-6.987,7.947-6.987c2.198,0,4.188,0.775,5.622,2.047   C86.013,52.563,86.904,54.31,86.904,56.242z"></path><circle cx="61.057" cy="27.895" r="6.847"></circle><path d="M69.004,42.708v8.641c0,1.99-0.949,3.794-2.476,5.055v11.059c0,2.638-2.452,4.766-5.472,4.766   c-1.504,0-2.88-0.532-3.864-1.4c-0.995-0.856-1.608-2.048-1.608-3.366V56.404c-0.046-0.035-0.104-0.069-0.15-0.116   c-1.434-1.261-2.325-3.019-2.325-4.94v-8.641c0-3.864,3.551-6.987,7.947-6.987c2.198,0,4.188,0.775,5.622,2.047   C68.114,39.029,69.004,40.776,69.004,42.708z"></path><circle cx="43.048" cy="14.28" r="6.847"></circle><path d="M50.996,29.093v8.641c0,1.99-0.949,3.794-2.476,5.055v11.059c0,2.638-2.452,4.766-5.472,4.766   c-1.504,0-2.88-0.532-3.864-1.4c-0.995-0.856-1.608-2.048-1.608-3.366V42.79c-0.046-0.035-0.104-0.069-0.15-0.116   c-1.434-1.261-2.325-3.019-2.325-4.94v-8.641c0-3.864,3.551-6.987,7.947-6.987c2.198,0,4.188,0.775,5.622,2.047   C50.105,25.415,50.996,27.161,50.996,29.093z"></path><polygon points="32.266,49.538 29.153,53.671 74.961,88.17 71.649,92.567 25.842,58.068 22.733,62.195 13.096,45.023  "></polygon></g></svg></g></svg>